# xmcd CD database file
#
# Track frame offsets:
#	150
#	29503
#	55014
#	76913
#	90895
#	115083
#	137517
#	165511
#	195419
#	225623
#
# Disc length: 3373 seconds
#
# Revision: 0
# Processed by: cddbd v1.5.2PL0 Copyright (c) Steve Scherf et al.
# Submitted via: CDex 1.50
#
DISCID=690d2b0a
DTITLE=Le Trio d'Arrosage - Brut de décoffrage
DYEAR=2005
DGENRE=Jazz
TTITLE0=1. A Pas de Jules (F.Tiollier)
TTITLE1=2. No Problemo (F. Tiollier)
TTITLE2=3. Bonjour Charlie (M. Bachevalier)
TTITLE3=4. Guataca City (P. D'Rivera)
TTITLE4=5. L'apéro ((M.Bachevalier)
TTITLE5=6. Mambo Kayoma (A. Pepper)
TTITLE6=7. Pasionaria (Trad. Espagnol)
TTITLE7=8. Loé (F. Tiollier)
TTITLE8=9. Soy Califa (D. Gordon)
TTITLE9=10. The Soul of El Barrio (D. Sanchez)
EXTD=YEAR: 2005
EXTT0=
EXTT1=
EXTT2=
EXTT3=
EXTT4=
EXTT5=
EXTT6=
EXTT7=
EXTT8=
EXTT9=
PLAYORDER=
